<?xml version="1.0" standalone="no"?>
<!DOCTYPE svg PUBLIC "-//W3C//DTD SVG 1.1//EN" "http://www.w3.org/Graphics/SVG/1.1/DTD/svg11.dtd">
<svg xmlns="http://www.w3.org/2000/svg">
<defs >
<font id="Lexend" horiz-adv-x="599" ><font-face
    font-family="Lexend Black"
    units-per-em="1000"
    panose-1="0 0 0 0 0 0 0 0 0 0"
    ascent="1000"
    descent="-250"
    alphabetic="0" />
<glyph unicode=" " horiz-adv-x="350" />
<glyph unicode="!" horiz-adv-x="364" d="M117 266Q108 325 98 388T82 513T75 635V720H289V635Q289 576 283 514T266 388T247 266H117ZM183 -11Q136 -11 110 15T84 89Q84 133 111 161T183 189Q230 189 256 163T282 89Q282 45 255 17T183 -11Z" />
<glyph unicode="&quot;" horiz-adv-x="526" d="M290 432L308 700H506L420 432H290ZM50 432L68 700H266L180 432H50Z" />
<glyph unicode="#" horiz-adv-x="776" d="M369 0L489 700H668L548 0H369ZM60 133V296H679V133H60ZM110 0L230 700H409L289 0H110ZM98 413V576H716V413H98Z" />
<glyph unicode="$" horiz-adv-x="642" d="M325 -10Q217 -10 141 18T12 96L97 259Q157 210 216 189T330 167Q349 167 364 170T387 182T395 204Q395 217 387 226T364 241T334 252T302 260T274 266Q193 285 140 315T61 388T35 493Q35 544 58 586T121 658T211 704T316
720Q404 720 475 699T613 625L545 476Q497 510 441 525T327 541Q304 541 288 538T263 527T254 506Q254 493 265 485T294 470T329 461T359 455Q414 445 460 428T540 384T593 318T612 224Q612 147 574 95T470 17T325 -10ZM264 -91L284 383L352 350L372 -91H264ZM366
348L298 381L278 792H386L366 348Z" />
<glyph unicode="%" horiz-adv-x="1064" d="M202 0L665 700H848L380 0H202ZM233 329Q178 329 134 355T65 426T40 528Q40 587 64 632T132 702T233 728Q290 728 333 703T400 632T424 528Q424 471 399 426T331 355T233 329ZM233 452Q246 452 254 461T267 488T272 528Q272
551 268 568T255 595T233 605Q220 605 211 596T197 569T192 528Q192 505 196 488T210 462T233 452ZM833 -10Q778 -10 734 16T665 87T640 189Q640 248 664 293T732 363T833 389Q890 389 933 364T1000 293T1024 189Q1024 132 999 87T931 16T833 -10ZM833 113Q846
113 854 122T867 149T872 189Q872 212 868 229T855 256T833 266Q820 266 811 257T797 230T792 189Q792 166 796 149T810 123T833 113Z" />
<glyph unicode="&amp;" horiz-adv-x="804" d="M583 0L530 54L436 138L309 267Q259 318 230 356T186 425T168 479T163 525Q163 581 193 625T276 694T400 720Q454 720 502 704T584 657T633 586L470 492Q455 529 441 539T409 550Q395 550 384 545T367 530T361 506Q361
488 379 460T425 401T482 340T533 290L560 264L659 178L829 0H583ZM342 -10Q258 -10 192 20T88 103T50 223Q50 291 91 349T216 438L342 326Q293 315 267 291T240 232Q240 204 253 185T293 155T356 145Q392 145 424 160T482 204T522 271T541 359H733Q724 293 701
237T642 135T560 57T459 7T342 -10Z" />
<glyph unicode="&apos;" horiz-adv-x="286" d="M50 432L68 700H266L180 432H50Z" />
<glyph unicode="(" horiz-adv-x="407" d="M290 -186Q168 -110 104 4T40 258Q40 397 104 511T291 702L407 600Q322 542 283 451T244 258Q244 156 283 65T407 -84L290 -186Z" />
<glyph unicode=")" horiz-adv-x="407" d="M116 -186L0 -84Q85 -26 124 65T163 258Q163 360 124 451T0 600L117 702Q239 626 303 512T367 258Q367 119 303 5T116 -186Z" />
<glyph unicode="*" horiz-adv-x="480" d="M171 336L190 487L216 482L74 386L8 498L160 552V541L8 607L74 721L220 608L190 604L168 762H312L293 605L271 610L406 721L472 607L315 541V551L470 498L404 386L275 487H294L315 336H171Z" />
<glyph unicode="+" horiz-adv-x="601" d="M50 206V366H551V206H50ZM216 37V530H385V37H216Z" />
<glyph unicode="," horiz-adv-x="302" d="M82 -215L30 -151Q74 -134 100 -105T126 -56Q126 -47 122 -37T98 -15Q73 1 63 19T53 62Q53 98 80 119T149 140Q181 140 206 123T247 76T262 5Q262 -31 249 -65T212 -130T154 -182T82 -215Z" />
<glyph unicode="-" horiz-adv-x="488" d="M50 198V378H438V198H50Z" />
<glyph unicode="." horiz-adv-x="278" d="M139 -11Q92 -11 66 15T40 89Q40 133 67 161T139 189Q186 189 212 163T238 89Q238 45 211 17T139 -11Z" />
<glyph unicode="/" horiz-adv-x="623" d="M0 -149L419 700H623L206 -149H0Z" />
<glyph unicode="0" horiz-adv-x="725" d="M362 -10Q257 -10 184 32T73 154T35 350Q35 465 73 545T184 668T362 710Q467 710 540 668T652 546T690 350Q690 235 652 155T541 32T362 -10ZM362 168Q421 168 453 215T485 350Q485 443 453 492T362 542Q303 542 271 493T239
350Q239 262 271 215T362 168Z" />
<glyph unicode="1" horiz-adv-x="607" d="M207 49V617L244 489L85 421L56 615L264 710H416V49H207ZM66 0V184H560V0H66Z" />
<glyph unicode="2" horiz-adv-x="548" d="M34 0L0 82L197 292Q215 311 236 335T277 386T309 436T322 478Q322 488 316 497T298 513T264 520Q245 520 230 512T199 486T165 436L8 516Q31 574 73 620T169 694T284 720Q348 719 401 693T486 619T518 509Q518 489 514
467T500 421T474 370T435 312T381 247L222 74L202 184H556V0H34Z" />
<glyph unicode="3" horiz-adv-x="637" d="M314 -10Q221 -10 151 26T25 156L176 253Q195 220 218 201T266 174T318 165Q341 165 360 174T390 199T402 239Q402 264 391 280T358 305T307 314Q294 314 278 311T245 302T211 287L168 400L304 546L369 525L82 535V710H534L573
632L339 389L289 452Q297 456 315 459T355 463Q403 463 446 446T524 398T577 326T597 237Q597 166 560 111T458 23T314 -10Z" />
<glyph unicode="4" horiz-adv-x="693" d="M347 0V568H487L217 237L178 280H663V110H96L10 272L378 710H556V0H347Z" />
<glyph unicode="5" horiz-adv-x="617" d="M301 -7Q214 -7 144 25T26 118L141 243Q177 203 212 188T291 173Q317 173 336 183T366 210T377 250Q377 273 366 290T334 318T287 329Q261 329 240 324T197 309T150 282L66 392L111 710H531V535H201L262 619L229 397L144
411Q169 432 199 448T263 473T332 483Q401 483 455 452T540 366T572 238Q572 169 536 114T439 26T301 -7Z" />
<glyph unicode="6" horiz-adv-x="596" d="M302 0Q246 0 197 20T111 76T52 158T30 258Q30 301 38 336T60 404T93 468T134 538L237 710H433L437 700L282 464Q259 429 244 400T214 338T179 260L141 303Q144 342 166 376T220 435T288 475T355 489Q415 489 465 458T546
374T576 260Q576 186 540 127T442 34T302 0ZM306 170Q332 170 352 180T383 210T395 255Q395 277 383 296T351 327T306 339Q280 339 260 328T229 297T217 255Q217 230 228 211T260 181T306 170Z" />
<glyph unicode="7" horiz-adv-x="561" d="M64 0L336 642L410 526H35V710H509L526 620L274 0H64Z" />
<glyph unicode="8" horiz-adv-x="613" d="M306 -3Q229 -3 167 24T67 100T30 209Q30 254 41 288T75 348T130 389T205 415L189 360Q159 372 135 389T93 427T67 474T57 529Q57 586 90 629T180 696T306 720Q375 720 431 696T521 629T555 529Q555 500 547 475T521 429T480
391T422 360L409 411Q447 404 479 389T534 350T570 290T583 209Q583 147 546 99T446 24T306 -3ZM306 156Q327 156 344 164T371 188T381 225Q381 245 372 260T345 285T306 294Q285 294 268 285T241 261T231 225Q231 205 241 190T268 165T306 156ZM306 457Q325 457
340 465T363 486T372 518Q372 536 364 550T340 572T306 581Q287 581 272 573T249 550T240 518Q240 500 248 487T272 465T306 457Z" />
<glyph unicode="9" horiz-adv-x="596" d="M193 0L189 10L417 452L465 409Q461 369 439 336T382 277T311 237T241 223Q184 223 136 255T59 341T30 456Q30 530 66 590T164 685T304 720Q360 720 409 701T496 647T555 568T576 472Q576 429 569 390T548 314T517 244T482
174L389 0H193ZM295 383Q320 383 339 394T368 425T379 467Q379 492 369 511T339 541T295 552Q270 552 252 542T222 512T211 467Q211 445 222 426T253 395T295 383Z" />
<glyph unicode=":" horiz-adv-x="278" d="M139 -11Q92 -11 66 15T40 89Q40 133 67 161T139 189Q186 189 212 163T238 89Q238 45 211 17T139 -11ZM139 345Q92 345 66 371T40 445Q40 489 67 517T139 545Q186 545 212 519T238 445Q238 401 211 373T139 345Z" />
<glyph unicode=";" horiz-adv-x="312" d="M92 -215L40 -151Q84 -134 110 -105T136 -56Q136 -47 132 -37T108 -15Q83 1 73 19T63 62Q63 98 90 119T159 140Q191 140 216 123T257 76T272 5Q272 -31 259 -65T222 -130T164 -182T92 -215ZM152 346Q105 346 79 372T53
446Q53 490 80 518T152 546Q199 546 225 520T251 446Q251 402 224 374T152 346Z" />
<glyph unicode="&lt;" horiz-adv-x="526" d="M443 -26L35 207V316L443 549L521 384L196 226V297L521 139L443 -26Z" />
<glyph unicode="=" horiz-adv-x="666" d="M80 321V481H586V321H80ZM80 82V242H586V82H80Z" />
<glyph unicode="&gt;" horiz-adv-x="527" d="M99 -26L21 139L346 297V226L21 384L99 549L507 316V207L99 -26Z" />
<glyph unicode="?" horiz-adv-x="554" d="M197 261L160 385Q182 390 204 397T248 413T285 434T311 462T321 497Q321 510 316 518T300 530T276 535Q248 535 219 515T160 440L25 570Q72 642 136 681T272 720Q340 720 395 693T482 618T514 511Q514 471 498 432T452
358T382 299T294 261H290H197ZM160 89Q160 133 187 161T259 189Q306 189 332 163T358 89Q358 45 331 17T259 -11Q212 -11 186 15T160 89Z" />
<glyph unicode="@" horiz-adv-x="965" d="M414 -162Q327 -162 258 -136T140 -61T66 56T40 206Q40 323 81 416T196 575T367 675T576 710Q656 710 720 688T830 623T900 524T925 396Q925 326 906 263T851 151T770 73T669 45Q628 45 596 58T546 96T528 151Q528 169
528 186T529 222L563 202Q547 152 522 117T463 64T389 45Q341 45 303 69T243 137T221 237Q221 287 240 338T293 433T371 503T466 530Q497 530 521 513T561 466T580 395L545 391L576 517H752L687 194Q684 180 688 172T700 161T720 157Q746 157 768 175T806 226T832
301T842 391Q842 467 810 521T716 604T568 633Q465 633 383 604T243 520T155 387T124 209Q124 140 143 87T200 -5T292 -62T417 -82Q464 -82 498 -76T563 -56T632 -22L669 -89Q610 -119 568 -134T490 -156T414 -162ZM445 192Q465 192 484 205T519 243T540 301Q542
312 543 322T545 343Q545 358 541 369T528 387T501 394Q475 394 454 375T422 322T410 249Q410 223 419 208T445 192Z" />
<glyph unicode="A" horiz-adv-x="690" d="M-20 0L261 700H431L710 0H496L384 306Q373 337 365 359T351 400T339 442T327 496H361Q355 465 349 443T337 401T322 359T302 306L190 0H-20ZM120 104L183 251H508L565 104H120Z" />
<glyph unicode="B" horiz-adv-x="715" d="M80 0V700H402Q478 700 530 679T610 620T638 531Q638 468 610 427T526 372L523 391Q569 380 603 356T656 296T675 216Q675 161 655 121T599 53T515 13T412 0H80ZM280 170H406Q425 170 438 176T458 196T465 229Q465 246
458 257T436 275T401 282H280V170ZM280 426H365Q388 426 402 432T423 449T430 478Q430 501 415 515T363 530H280V426Z" />
<glyph unicode="C" horiz-adv-x="705" d="M424 -10Q340 -10 270 17T148 92T68 208T40 355Q40 435 68 502T149 617T272 693T430 720Q479 720 526 709T616 674T694 614L565 463Q551 480 532 494T487 516T428 525Q394 525 364 514T311 480T275 426T262 352Q262 314
275 283T312 230T370 196T446 184Q476 184 503 193T552 216T590 249L693 87Q667 59 624 37T529 3T424 -10Z" />
<glyph unicode="D" horiz-adv-x="790" d="M80 0V700H388Q467 700 533 674T648 602T723 491T750 350Q750 274 724 210T648 99T533 26T388 0H80ZM296 133L259 184H383Q416 184 443 196T490 231T521 283T532 350Q532 386 521 416T490 469T443 503T383 516H256L296 565V133Z" />
<glyph unicode="E" horiz-adv-x="668" d="M80 0V700H603V525H287V175H621V0H80ZM183 272V436H566V272H183Z" />
<glyph unicode="F" horiz-adv-x="630" d="M80 0V700H296V0H80ZM183 246V416H546V246H183ZM183 516V700H583V516H183Z" />
<glyph unicode="G" horiz-adv-x="793" d="M414 -10Q324 -10 255 17T137 93T65 209T40 355Q40 435 67 501T147 617T270 693T430 720Q491 720 543 705T638 665T712 607L584 471Q564 490 541 504T490 527T427 536Q391 536 361 523T309 485T275 428T262 355Q262 316
275 283T311 225T366 188T436 174Q462 174 483 182T520 205T545 240T554 285V314L582 266H404V418H748Q749 407 750 382T752 333T753 299Q753 232 728 175T658 77T550 13T414 -10Z" />
<glyph unicode="H" horiz-adv-x="793" d="M497 0V700H713V0H497ZM80 0V700H296V0H80ZM161 255L162 443H619V255H161Z" />
<glyph unicode="I" horiz-adv-x="612" d="M75 0V175H198V525H75V700H537V525H414V175H537V0H75Z" />
<glyph unicode="J" horiz-adv-x="682" d="M265 -10Q223 -10 187 -2T122 22T71 61T31 115L150 238Q159 225 168 214T188 196T209 184T233 179Q249 179 261 186T279 207T286 240V516H157V700H602V516H494V213Q494 159 476 118T427 48T355 5T265 -10Z" />
<glyph unicode="K" horiz-adv-x="744" d="M230 199L157 359L490 700H735L230 199ZM80 0V700H296V0H80ZM519 0L265 331L405 452L764 0H519Z" />
<glyph unicode="L" horiz-adv-x="616" d="M80 0V700H296V184H596V0H80Z" />
<glyph unicode="M" horiz-adv-x="888" d="M80 0V700H266L521 285L370 286L628 700H808V0H600V167Q600 257 604 329T620 472L644 409L475 147H409L243 409L268 472Q279 405 283 335T288 167V0H80Z" />
<glyph unicode="N" horiz-adv-x="817" d="M80 0V700H273L595 255L549 269Q544 309 541 339T535 394T531 445T529 500T529 570V700H737V0H542L187 490L268 466Q273 429 276 402T282 351T285 306T287 256T288 191V0H80Z" />
<glyph unicode="O" horiz-adv-x="834" d="M418 -10Q335 -10 266 17T146 93T68 209T40 355Q40 435 67 501T146 617T266 693T417 720Q500 720 568 693T688 617T766 502T794 356Q794 276 767 209T688 93T569 17T418 -10ZM417 190Q451 190 479 202T529 236T562 289T574
355Q574 391 563 421T530 473T480 508T417 520Q383 520 355 508T305 474T272 421T260 355Q260 319 271 289T304 237T354 202T417 190Z" />
<glyph unicode="P" horiz-adv-x="683" d="M80 0V700H395Q467 700 523 669T611 584T643 460Q643 387 611 330T523 241T395 208H296V0H80ZM292 392H355Q374 392 389 399T412 421T421 456Q421 477 413 490T389 509T355 516H292V392Z" />
<glyph unicode="Q" horiz-adv-x="834" d="M617 -110L347 264L498 372L765 1L617 -110ZM417 -10Q335 -10 266 17T146 93T68 209T40 355Q40 435 67 501T146 617T266 693T417 720Q500 720 568 693T688 617T766 502T794 355Q794 276 767 209T688 93T569 17T417 -10ZM417
190Q451 190 479 202T529 236T562 289T574 355Q574 391 563 421T530 473T480 508T417 520Q383 520 355 508T305 474T272 421T260 355Q260 319 271 289T304 237T354 202T417 190Z" />
<glyph unicode="R" horiz-adv-x="707" d="M80 0V700H408Q481 700 538 671T627 592T659 477Q659 404 627 349T538 264T408 233H282V0H80ZM447 0L269 316L490 341L688 0H447ZM282 383H374Q399 383 415 392T440 419T449 460Q449 482 441 497T415 521T370 530H282V383Z" />
<glyph unicode="S" horiz-adv-x="641" d="M325 -10Q246 -10 186 7T80 57T-2 132L123 272Q173 208 227 188T330 167Q349 167 364 170T387 182T395 204Q395 217 387 226T364 241T334 252T302 260T274 266Q214 280 169 300T94 348T50 412T35 493Q35 544 58 586T121
658T211 704T316 720Q395 720 448 706T537 664T599 601L473 480Q451 501 427 514T378 534T327 541Q304 541 288 538T263 527T254 506Q254 493 265 485T294 470T329 461T359 455Q414 445 460 428T540 384T593 318T612 224Q612 147 574 95T470 17T325 -10Z" />
<glyph unicode="T" horiz-adv-x="714" d="M246 0V516H30V700H684V516H462V0H246Z" />
<glyph unicode="U" horiz-adv-x="784" d="M392 -6Q301 -6 231 29T120 127T80 269V700H298V278Q298 249 310 227T343 191T392 178Q421 178 443 191T478 226T491 278V700H704V269Q704 189 664 127T554 30T392 -6Z" />
<glyph unicode="V" horiz-adv-x="710" d="M269 0L-10 700H206L318 394Q330 363 337 341T351 300T362 258T375 204H340Q350 246 357 273T374 326T399 394L511 700H720L439 0H269Z" />
<glyph unicode="W" horiz-adv-x="990" d="M189 0L-10 700H206L288 384Q296 353 301 325T310 272T314 228T316 194H300Q300 219 301 247T309 309T329 384L416 631H581L668 384Q682 344 690 311T701 249T705 194H690Q690 206 690 221T690 254T693 292T699 336T709
384L791 700H1000L799 0H629L477 377H504L369 0H189Z" />
<glyph unicode="X" horiz-adv-x="719" d="M480 0L263 314L-15 700H244L456 390L739 0H480ZM-20 0L247 381L436 302L229 0H-20ZM472 325L284 401L480 700H729L472 325Z" />
<glyph unicode="Y" horiz-adv-x="710" d="M256 0V349L263 300L-20 700H220L436 390L301 393L496 700H730L459 289L474 357V0H256Z" />
<glyph unicode="Z" horiz-adv-x="701" d="M60 0V139L419 613L511 506H86V700H630V562L273 87L180 182H641V0H60Z" />
<glyph unicode="[" horiz-adv-x="432" d="M80 -190V700H407V520H273L279 528V-22L269 -10H407V-190H80Z" />
<glyph unicode="\" horiz-adv-x="604" d="M398 -107L0 700H204L604 -107H398Z" />
<glyph unicode="]" horiz-adv-x="432" d="M25 -190V-10H159L153 -18V532L163 520H25V700H352V-190H25Z" />
<glyph unicode="^" horiz-adv-x="602" d="M0 356L226 737H376L602 356H406L236 653L367 654L193 356H0Z" />
<glyph unicode="_" horiz-adv-x="684" d="M30 -216V-46H654V-216H30Z" />
<glyph unicode="`" horiz-adv-x="500" d="M335 567L107 689L187 810L393 656L335 567Z" />
<glyph unicode="a" horiz-adv-x="679" d="M261 -9Q194 -9 142 26T60 124T30 268Q30 350 59 412T141 510T263 546Q299 546 329 536T382 508T422 467T451 416L410 417V535H609V0H405V131L450 127Q440 98 423 73T381 30T327 2T261 -9ZM319 156Q348 156 368 169T399
207T410 268Q410 304 400 329T369 368T319 381Q290 381 270 368T240 330T229 268Q229 232 239 207T270 169T319 156Z" />
<glyph unicode="b" horiz-adv-x="679" d="M421 -11Q384 -11 351 -2T293 23T250 61T228 109L269 118L253 0H70V740H274V404L229 418Q235 445 252 468T295 509T351 536T416 546Q484 546 536 510T619 411T649 267Q649 185 620 123T539 25T421 -11ZM360 154Q389 154
409 167T439 206T450 267Q450 303 440 328T409 367T360 380Q331 380 311 367T280 329T269 267Q269 231 279 206T310 168T360 154Z" />
<glyph unicode="c" horiz-adv-x="553" d="M311 -10Q230 -10 167 26T67 124T30 268Q30 349 66 411T166 510T311 546Q383 546 444 524T543 460L433 330Q422 342 407 352T373 367T329 373Q299 373 277 360T242 324T230 269Q230 239 241 216T275 178T329 164Q354 164
373 169T407 183T433 206L542 75Q505 34 444 12T311 -10Z" />
<glyph unicode="d" horiz-adv-x="669" d="M258 -11Q192 -11 141 24T60 122T30 267Q30 348 60 411T142 510T263 546Q297 546 328 537T384 510T426 469T450 418L405 404V740H609V0H426L410 118L451 109Q446 83 429 61T387 23T328 -2T258 -11ZM319 154Q348 154 368
167T399 206T410 267Q410 303 400 328T369 367T319 380Q290 380 270 367T240 329T229 267Q229 231 239 206T270 168T319 154Z" />
<glyph unicode="e" horiz-adv-x="586" d="M329 -10Q236 -10 169 26T66 124T30 268Q30 328 50 379T106 467T192 525T301 546Q360 546 408 526T492 468T545 379T562 268L561 226H142L119 321H400L381 301V319Q381 338 372 352T345 375T305 383Q276 383 256 371T226
337T215 284Q215 248 230 221T276 179T352 164Q382 164 403 171T449 196L542 65Q505 36 470 20T400 -3T329 -10Z" />
<glyph unicode="f" horiz-adv-x="393" d="M86 0V537Q86 594 110 641T179 716T284 745Q325 745 360 734T426 704L373 559Q360 562 350 563T333 565Q317 565 308 559T294 542T289 513V0H188Q150 0 125 0T86 0ZM13 356V516H387V356H13Z" />
<glyph unicode="g" horiz-adv-x="684" d="M319 -230Q247 -230 177 -210T61 -158L130 -22Q152 -36 176 -46T226 -61T283 -66Q330 -66 359 -54T401 -14T415 55V135L460 131Q452 97 425 71T358 30T273 15Q202 15 148 47T62 136T30 272Q30 353 61 414T145 511T268
546Q298 546 325 540T375 524T416 498T445 465T461 426L420 417L431 535H619V52Q619 -15 599 -67T539 -156T445 -211T319 -230ZM324 160Q355 160 376 173T409 210T420 270Q420 305 409 330T377 368T324 381Q293 381 272 368T240 330T229 270Q229 235 240 211T272
173T324 160Z" />
<glyph unicode="h" horiz-adv-x="665" d="M70 0V740H268V427L225 415Q236 453 264 482T333 529T418 546Q478 546 520 521T583 448T605 330V0H402V313Q402 335 395 350T374 373T341 381Q326 381 314 377T292 363T278 343T273 318V0H172Q134 0 109 0T70 0Z" />
<glyph unicode="i" horiz-adv-x="350" d="M73 0V535H276V0H73ZM175 632Q121 632 91 657T60 728Q60 770 91 797T175 824Q229 824 259 799T290 728Q290 686 259 659T175 632Z" />
<glyph unicode="j" horiz-adv-x="353" d="M33 -219L-44 -62Q7 -62 33 -52T69 -13T79 71V535H282V23Q282 -66 255 -119T172 -195T33 -219ZM183 632Q129 632 99 657T68 728Q68 770 99 797T183 824Q237 824 267 799T298 728Q298 686 267 659T183 632Z" />
<glyph unicode="k" horiz-adv-x="669" d="M269 150L169 276L416 535H680L269 150ZM70 0V740H273V0H70ZM434 0L256 251L398 353L666 0H434Z" />
<glyph unicode="l" horiz-adv-x="343" d="M70 0V740H273V0H70Z" />
<glyph unicode="m" horiz-adv-x="993" d="M70 0V535H258L266 451L243 459Q258 485 277 501T319 528T364 542T408 546Q443 546 474 537T530 503T572 434L541 435L549 449Q564 475 585 493T631 523T682 540T732 546Q798 546 843 521T910 448T933 330V0H730V313Q730
335 723 350T703 373T670 381Q655 381 643 377T622 363T608 343T603 318V0H400V313Q400 335 393 350T373 373T340 381Q325 381 313 377T292 363T278 343T273 318V0H70Z" />
<glyph unicode="n" horiz-adv-x="665" d="M70 0V535H258L268 427L225 415Q236 453 264 482T333 529T418 546Q478 546 520 521T583 448T605 330V0H402V313Q402 335 395 350T374 373T341 381Q326 381 314 377T292 363T278 343T273 318V0H172Q134 0 109 0T70 0Z" />
<glyph unicode="o" horiz-adv-x="660" d="M331 -10Q244 -10 176 26T69 124T30 268Q30 349 69 411T176 510T331 546Q418 546 485 510T591 412T630 268Q630 187 592 125T486 26T331 -10ZM331 160Q358 160 379 174T413 212T425 268Q425 300 413 324T380 363T331 377Q303
377 282 363T248 325T235 268Q235 237 247 213T281 174T331 160Z" />
<glyph unicode="p" horiz-adv-x="679" d="M70 -220V535H258L269 417L228 426Q235 461 262 488T330 530T421 546Q487 546 538 511T619 413T649 268Q649 187 619 125T537 27T416 -9Q371 -9 332 7T265 51T229 117L274 131V-220H70ZM360 156Q389 156 409 169T439 207T450
268Q450 304 440 329T409 368T360 381Q331 381 311 368T280 330T269 268Q269 232 279 207T310 169T360 156Z" />
<glyph unicode="q" horiz-adv-x="679" d="M405 -220V131L450 117Q444 90 427 67T384 27T328 1T263 -9Q195 -9 143 26T60 124T30 268Q30 350 59 412T140 510T258 546Q295 546 328 537T386 512T429 474T451 426L410 417L421 535H609V-220H405ZM319 156Q348 156 368
169T399 207T410 268Q410 304 400 329T369 368T319 381Q290 381 270 368T240 330T229 268Q229 232 239 207T270 169T319 156Z" />
<glyph unicode="r" horiz-adv-x="493" d="M70 0V535H258L270 357L225 385Q238 431 266 467T333 525T418 546Q436 546 452 544T483 537L427 312Q417 319 396 325T349 331Q331 331 317 326T293 309T278 283T273 248V0H70Z" />
<glyph unicode="s" horiz-adv-x="507" d="M253 -10Q166 -10 102 16T1 83L119 184Q151 156 192 143T262 129Q272 129 279 130T291 135T298 143T301 153Q301 168 285 175Q276 179 256 185T202 199Q163 209 131 224T75 259Q51 281 38 309T24 372Q24 413 43 445T95
499T169 534T253 546Q302 546 344 537T424 510T493 468L390 353Q373 367 351 380T304 401T258 410Q247 410 240 409T227 404T220 396T217 385Q217 377 222 370T238 358Q247 354 268 347T332 328Q377 315 411 298T467 258Q481 242 489 222T497 179Q497 124 466 82T379
15T253 -10Z" />
<glyph unicode="t" horiz-adv-x="409" d="M98 0V670H301V0H98ZM15 365V535H389V365H15Z" />
<glyph unicode="u" horiz-adv-x="669" d="M249 -11Q188 -11 146 14T82 87T60 205V535H263V222Q263 200 270 185T292 162T326 154Q341 154 353 158T375 172T389 192T394 217V535H597V0H411L399 108L437 120Q426 82 399 53T332 6T249 -11Z" />
<glyph unicode="v" horiz-adv-x="629" d="M227 0L5 535H231L342 136H288L398 535H624L391 0H227Z" />
<glyph unicode="w" horiz-adv-x="859" d="M177 0L5 535H221L298 226L278 230L366 470H484L582 230L562 227L638 535H854L671 0H517L425 248H429L331 0H177Z" />
<glyph unicode="x" horiz-adv-x="639" d="M381 0L310 134L230 247L29 535H267L333 413L419 294L619 0H381ZM20 0L239 319L344 194L258 0H20ZM394 214L289 339L376 535H614L394 214Z" />
<glyph unicode="y" horiz-adv-x="649" d="M121 -230L254 84L256 2L5 535H231L305 357Q317 329 325 304T338 257L318 239Q322 250 330 273T348 328L418 535H644L411 0L317 -230H121Z" />
<glyph unicode="z" d="M50 0V96L341 458V375H50V535H533V431L266 84L262 160H543V0H50Z" />
<glyph unicode="{" horiz-adv-x="438" d="M360 -210Q307 -199 267 -182T201 -141T161 -83T147 -7L148 88Q148 132 129 149T73 168H35V332H75Q112 333 130 350T148 412L147 507Q147 589 200 638T360 710L408 561Q378 551 362 543T338 519T331 473L333 398Q333 340
291 300T154 239V262Q249 239 291 199T333 102L331 27Q331 1 338 -12T361 -33T408 -51L360 -210Z" />
<glyph unicode="|" horiz-adv-x="383" d="M95 -193V740H288V-193H95Z" />
<glyph unicode="}" horiz-adv-x="438" d="M78 -210L30 -61Q60 -51 76 -43T100 -19T107 27L105 102Q105 160 147 200T284 261V238Q189 261 147 301T105 398L107 473Q107 500 100 513T77 533T30 551L78 710Q131 700 171 683T237 641T277 583T291 507L290 412Q290
368 309 351T365 332H403V168H363Q326 167 308 150T290 88L291 -7Q291 -89 238 -138T78 -210Z" />
<glyph unicode="~" horiz-adv-x="594" d="M403 185Q385 185 368 188T333 198T296 213Q281 220 266 226T237 236T212 240Q192 240 182 223T171 173H26Q26 289 67 351T200 413Q213 413 227 410T254 403T281 393T306 382Q318 377 330 371T356 361T381 357Q398 357
409 376T419 424H564Q564 345 546 292T492 212T403 185Z" />
<glyph unicode="&#xa0;" horiz-adv-x="350" />
<glyph unicode="&#xa1;" horiz-adv-x="364" d="M247 264Q256 205 266 143T282 17T289 -105V-190H75V-105Q75 -46 81 17T98 142T117 264H247ZM181 541Q228 541 254 515T280 441Q280 397 253 369T181 341Q134 341 108 367T82 441Q82 485 109 513T181 541Z" />
<glyph unicode="&#xa2;" horiz-adv-x="583" d="M341 78Q257 78 192 114T88 212T50 356Q50 437 88 499T191 598T341 634Q413 634 474 612T573 548L463 418Q452 430 437 440T403 455T359 461Q326 461 302 448T264 412T250 357Q250 327 263 304T300 266T359 252Q384
252 403 257T437 271T463 294L572 163Q535 122 474 100T341 78ZM284 0V108L324 146V550L284 606V710H421V605L388 550V145L421 107V0H284Z" />
<glyph unicode="&#xa3;" horiz-adv-x="659" d="M177 53L102 74Q123 86 139 106T165 150T175 192Q175 206 171 227T159 272T145 317T133 352Q121 389 115 413T107 454T104 487Q104 558 137 610T229 691T370 720Q444 720 498 695T579 625L424 502Q417 515 408 522T386
533T360 537Q338 537 321 528T294 503T284 466Q284 435 291 409T307 353Q319 315 326 284T333 232Q333 201 319 173T270 116T177 53ZM466 -21Q423 -21 386 -12T327 4Q314 8 298 13T262 22T220 26Q186 26 154 15T84 -16L14 130Q62 159 115 176T224 194Q256 194 280
189T348 169Q369 162 395 155T454 147Q472 147 499 155T556 182L644 47Q606 13 555 -4T466 -21ZM44 289V389H482V289H44Z" />
<glyph unicode="&#xa4;" horiz-adv-x="568" d="M284 100Q217 100 165 126T83 200T53 308Q53 369 82 416T164 489T284 516Q351 516 402 490T483 416T513 308Q513 247 484 200T403 127T284 100ZM132 44L12 165L95 248L212 124L132 44ZM86 379L12 453L132 573L210
495L86 379ZM284 240Q303 240 317 248T340 272T348 308Q348 329 340 344T318 368T284 377Q265 377 250 369T227 345T218 308Q218 288 226 273T250 249T284 240ZM440 44L360 124L477 247L560 165L440 44ZM469 362L349 481L440 573L560 453L469 362Z" />
<glyph unicode="&#xa5;" horiz-adv-x="710" d="M256 0V349L263 300L-20 700H220L436 390L301 393L496 700H730L459 289L474 357V0H256ZM139 148V208H591V148H139ZM139 258V318H591V258H139Z" />
<glyph unicode="&#xa6;" horiz-adv-x="387" d="M95 -202V188H292V-202H95ZM95 351V740H292V351H95Z" />
<glyph unicode="&#xa7;" horiz-adv-x="594" d="M367 135L306 229Q328 231 342 237T363 254T370 276Q370 291 358 301T319 323L267 346Q219 367 183 388T121 434T83 488T70 555Q70 587 83 616T126 669T203 706T318 720Q374 720 421 708T505 675T566 627L464 519Q432
545 406 558T358 576T319 581Q290 581 277 572T264 549Q264 534 275 524T305 507T342 490L421 455Q491 424 526 384T561 288Q561 248 538 216T472 162T367 135ZM268 -148Q212 -148 165 -136T81 -103T20 -55L122 53Q170 15 206 3T267 -9Q296 -9 309 0T322 26Q322
40 308 50T273 70T227 90L165 117Q95 148 60 188T25 284Q25 324 48 356T114 410T219 437L280 343Q258 341 244 335T223 319T216 296Q216 281 228 271T267 249L319 226Q383 198 426 172T493 113T516 28Q516 -20 492 -60T413 -124T268 -148Z" />
<glyph unicode="&#xa8;" horiz-adv-x="500" d="M386 614Q338 614 312 640T286 714Q286 758 313 786T386 814Q434 814 460 789T486 714Q486 670 459 642T386 614ZM115 614Q67 614 41 640T15 714Q15 758 42 786T115 814Q163 814 189 789T215 714Q215 670 188 642T115 614Z" />
<glyph unicode="&#xa9;" horiz-adv-x="794" d="M396 -27Q317 -27 249 2T129 82T48 202T19 350Q19 429 48 497T128 617T248 698T396 727Q474 727 542 698T663 618T744 498T773 350Q773 271 744 203T663 83T543 2T396 -27ZM410 144Q351 144 304 171T228 244T199
349Q199 406 227 453T303 529T410 557Q447 557 481 544T550 506L492 379Q481 387 470 392T450 399T431 401Q414 401 402 394T382 376T374 349Q374 334 381 322T401 303T431 296Q444 296 460 300T494 318L554 189Q521 166 485 155T410 144ZM396 47Q459 47 514 70T610
135T675 232T699 350Q699 413 676 468T611 565T514 629T396 653Q333 653 278 630T182 565T117 469T93 350Q93 287 116 232T181 136T277 71T396 47Z" />
<glyph unicode="&#xaa;" horiz-adv-x="410" d="M137 390Q101 390 75 411T34 472T20 562Q20 608 36 644T82 701T149 722Q209 722 235 691T262 602L237 648V715H370V401H237V474L262 502Q262 473 249 448T208 406T137 390ZM196 498Q209 498 219 505T235 526T241
558Q241 584 229 599T195 614Q182 614 172 607T157 587T151 559Q151 540 156 527T171 506T196 498Z" />
<glyph unicode="&#xab;" horiz-adv-x="619" d="M471 9L283 248V269L471 508L584 431L459 233V284L584 86L471 9ZM198 9L10 248V269L198 508L311 431L186 233V284L311 86L198 9Z" />
<glyph unicode="&#xac;" horiz-adv-x="670" d="M450 97V319L549 254H35V424H635V97H450Z" />
<glyph unicode="&#xad;" horiz-adv-x="498" d="M60 198V378H448V198H60Z" />
<glyph unicode="&#xae;" horiz-adv-x="507" d="M260 219Q185 219 124 254T26 350T-10 484Q-10 540 11 588T69 672T155 728T260 749Q313 749 360 729T442 672T498 587T519 484Q519 429 499 381T443 296T361 240T260 219ZM260 283Q313 283 357 310T428 382T455 484Q455
540 429 585T358 658T260 685Q203 685 157 658T82 586T54 484Q54 427 82 382T156 310T260 283ZM294 367L257 447L336 466L399 367H294ZM149 367V606H279Q321 606 347 584T373 527Q373 491 346 469T279 446H235L246 460V367H149ZM246 495L235 502H259Q267 502 272
506T278 519Q278 527 274 531T261 536H235L246 544V495Z" />
<glyph unicode="&#xaf;" horiz-adv-x="424" d="M63 628V748H437V628H63Z" />
<glyph unicode="&#xb0;" horiz-adv-x="532" d="M266 389Q217 389 177 411T114 470T90 553Q90 600 113 637T175 697T266 719Q317 719 356 697T419 638T442 554Q442 508 419 471T355 411T266 389ZM266 506Q278 506 288 512T305 530T311 554Q311 567 305 578T289
595T266 601Q253 601 243 595T227 577T221 553Q221 540 227 529T243 512T266 506Z" />
<glyph unicode="&#xb1;" horiz-adv-x="684" d="M80 333V493H601V333H80ZM83 -10V150H604V-10H83ZM248 214V607H433V214H248Z" />
<glyph unicode="&#xb2;" horiz-adv-x="378" d="M57 418L40 511L145 582Q165 596 181 610T206 638T216 665Q216 676 211 683T194 690Q173 690 157 673T131 638L35 706Q60 740 85 762T140 796T205 807Q248 807 279 791T328 749T345 691Q345 642 323 609T266 552T194
510L150 488V525H358V418H57Z" />
<glyph unicode="&#xb3;" horiz-adv-x="366" d="M186 412Q151 412 125 415T75 425T20 446L74 541Q90 533 109 528T148 523Q167 523 179 531T191 551Q191 562 180 569T148 576Q134 576 121 574T92 568L67 632L240 739V694H52V801H294L306 703L171 614V620Q185 629
200 633T225 638Q265 638 295 610T326 535Q326 498 306 471T254 428T186 412Z" />
<glyph unicode="&#xb4;" horiz-adv-x="500" d="M165 566L107 655L313 809L393 688L165 566Z" />
<glyph unicode="&#xb5;" horiz-adv-x="679" d="M70 -165V535H273V222Q273 200 280 185T302 162T336 154Q351 154 363 158T385 172T399 192T404 217V535H607V0H421L410 89L432 83Q406 48 383 29T331 1T261 -12Q255 -12 252 -12T247 -13T243 -13L263 69L273 -165H70Z" />
<glyph unicode="&#xb6;" horiz-adv-x="801" d="M248 0V314L312 269H228Q174 269 132 296T65 372T40 481Q40 547 68 596T146 673T265 700H721V0H513V660L589 596H352L456 652V0H248Z" />
<glyph unicode="&#xb7;" horiz-adv-x="278" d="M139 253Q92 253 66 279T40 353Q40 397 67 425T139 453Q186 453 212 427T238 353Q238 309 211 281T139 253Z" />
<glyph unicode="&#xb8;" horiz-adv-x="500" d="M146 -247L135 -156Q153 -156 173 -153T207 -143T221 -125Q221 -115 214 -109T194 -99T164 -96L143 -80L210 24H309L261 -40Q315 -44 340 -72T366 -139Q366 -173 346 -194T292 -228T220 -244T146 -247Z" />
<glyph unicode="&#xb9;" horiz-adv-x="298" d="M108 431V736L134 678L64 636L10 732L142 810H251V431H180Q163 431 146 431T108 431Z" />
<glyph unicode="&#xba;" horiz-adv-x="434" d="M216 393Q165 393 126 414T63 472T40 556Q40 603 63 640T125 699T216 721Q266 721 306 699T370 640T394 556Q394 509 371 473T308 415T216 393ZM215 488Q229 488 239 497T254 522T260 559Q260 580 255 594T240 616T215
624Q202 624 192 616T176 592T170 559Q170 537 175 521T191 497T215 488Z" />
<glyph unicode="&#xbb;" horiz-adv-x="620" d="M422 13L309 90L434 288V237L309 435L422 512L610 273V252L422 13ZM148 13L35 90L160 288V237L35 435L148 512L336 273V252L148 13Z" />
<glyph unicode="&#xbc;" horiz-adv-x="841" d="M118 361V666L144 608L74 566L20 662L152 740H261V361H190Q173 361 156 361T118 361ZM72 0L539 700H718L250 0H72ZM739 167H811V60H739V167ZM541 133L525 167H675L630 122V282L659 271L541 133ZM755 0H600V105L645
60H451L429 149L619 379H755V0Z" />
<glyph unicode="&#xbd;" horiz-adv-x="858" d="M118 361V666L144 608L74 566L20 662L152 740H261V361H190Q173 361 156 361T118 361ZM72 0L539 700H718L250 0H72ZM517 0L500 93L605 164Q625 178 641 192T666 220T676 247Q676 258 671 265T654 272Q633 272 617
255T591 220L495 288Q520 322 545 344T600 378T665 389Q708 389 739 373T788 331T805 273Q805 224 783 191T726 134T654 92L610 70V107H818V0H517Z" />
<glyph unicode="&#xbe;" horiz-adv-x="893" d="M191 342Q156 342 130 345T80 355T25 376L79 471Q95 463 114 458T153 453Q172 453 184 461T196 481Q196 492 185 499T153 506Q139 506 126 504T97 498L72 562L245 669V624H57V731H299L311 633L176 544V550Q190 559
205 563T230 568Q270 568 300 540T331 465Q331 428 311 401T259 358T191 342ZM124 0L591 700H770L302 0H124ZM791 167H863V60H791V167ZM593 133L577 167H727L682 122V282L711 271L593 133ZM807 0H652V105L697 60H503L481 149L671 379H807V0Z" />
<glyph unicode="&#xbf;" horiz-adv-x="554" d="M342 273L379 149Q357 144 335 137T291 121T254 100T228 73T218 37Q218 25 223 17T239 4T263 -1Q292 -1 321 19T379 94L514 -36Q467 -108 403 -147T267 -186Q199 -186 144 -159T57 -84T25 23Q25 64 41 103T87 176T157
235T245 273H249H342ZM379 445Q379 401 352 373T280 345Q233 345 207 371T181 445Q181 489 208 517T280 545Q327 545 353 519T379 445Z" />
<glyph unicode="&#xc0;" horiz-adv-x="690" d="M-20 0L261 700H431L710 0H496L384 306Q373 337 365 359T351 400T339 442T327 496H361Q355 465 349 443T337 401T322 359T302 306L190 0H-20ZM120 104L183 251H508L565 104H120ZM459 742L214 823L274 960L502 844L459 742Z" />
<glyph unicode="&#xc1;" horiz-adv-x="690" d="M-20 0L261 700H431L710 0H496L384 306Q373 337 365 359T351 400T339 442T327 496H361Q355 465 349 443T337 401T322 359T302 306L190 0H-20ZM120 104L183 251H508L565 104H120ZM241 742L198 844L426 960L486 823L241 742Z" />
<glyph unicode="&#xc2;" horiz-adv-x="690" d="M-20 0L261 700H431L710 0H496L384 306Q373 337 365 359T351 400T339 442T327 496H361Q355 465 349 443T337 401T322 359T302 306L190 0H-20ZM120 104L183 251H508L565 104H120ZM207 753L149 826L294 937H396L541
826L483 753L330 829H360L207 753Z" />
<glyph unicode="&#xc3;" horiz-adv-x="690" d="M-20 0L261 700H431L710 0H496L384 306Q373 337 365 359T351 400T339 442T327 496H361Q355 465 349 443T337 401T322 359T302 306L190 0H-20ZM120 104L183 251H508L565 104H120ZM424 768Q407 768 389 773T345 790Q326
799 314 803T291 808Q276 808 268 798T260 769H143Q143 844 180 888T281 932Q296 932 312 929T360 909Q378 900 387 896T405 892Q418 892 424 903T430 932H546Q546 886 531 849T488 790T424 768Z" />
<glyph unicode="&#xc4;" horiz-adv-x="690" d="M-20 0L261 700H431L710 0H496L384 306Q373 337 365 359T351 400T339 442T327 496H361Q355 465 349 443T337 401T322 359T302 306L190 0H-20ZM120 104L183 251H508L565 104H120ZM480 750Q432 750 406 776T380 850Q380
894 407 922T480 950Q528 950 554 925T580 850Q580 806 553 778T480 750ZM209 750Q161 750 135 776T109 850Q109 894 136 922T209 950Q257 950 283 925T309 850Q309 806 282 778T209 750Z" />
<glyph unicode="&#xc5;" horiz-adv-x="690" d="M-20 0L261 700H431L710 0H496L384 306Q373 337 365 359T351 400T339 442T327 496H361Q355 465 349 443T337 401T322 359T302 306L190 0H-20ZM120 104L183 251H508L565 104H120ZM345 669Q305 669 271 688T216 737T195
804Q195 844 215 877T270 930T345 950Q385 950 419 930T473 877T494 804Q494 768 474 738T419 688T345 669ZM345 768Q359 768 369 778T380 804Q380 820 370 830T345 841Q331 841 321 831T310 804Q310 789 320 779T345 768Z" />
<glyph unicode="&#xc6;" horiz-adv-x="1154" d="M-20 0L468 700H1107V525H779V436H1062V272H779V175H1107V0H572V135H297L409 299H572V558L597 550L221 0H-20Z" />
<glyph unicode="&#xc7;" horiz-adv-x="705" d="M424 -10Q340 -10 270 17T148 92T68 208T40 355Q40 435 68 502T149 617T272 693T430 720Q479 720 526 709T616 674T694 614L565 463Q551 480 532 494T487 516T428 525Q394 525 364 514T311 480T275 426T262 352Q262
314 275 283T312 230T370 196T446 184Q476 184 503 193T552 216T590 249L693 87Q667 59 624 37T529 3T424 -10ZM308 -247L297 -156Q315 -156 335 -153T369 -143T383 -125Q383 -115 376 -109T356 -99T326 -96L305 -80L372 24H471L423 -40Q477 -44 502 -72T528 -139Q528
-173 508 -194T454 -228T382 -244T308 -247Z" />
<glyph unicode="&#xc8;" horiz-adv-x="668" d="M80 0V700H603V525H287V175H621V0H80ZM183 272V436H566V272H183ZM468 742L223 823L283 960L511 844L468 742Z" />
<glyph unicode="&#xc9;" horiz-adv-x="668" d="M80 0V700H603V525H287V175H621V0H80ZM183 272V436H566V272H183ZM250 742L207 844L435 960L495 823L250 742Z" />
<glyph unicode="&#xca;" horiz-adv-x="668" d="M80 0V700H603V525H287V175H621V0H80ZM183 272V436H566V272H183ZM216 753L158 826L303 937H405L550 826L492 753L339 829H369L216 753Z" />
<glyph unicode="&#xcb;" horiz-adv-x="668" d="M80 0V700H603V525H287V175H621V0H80ZM183 272V436H566V272H183ZM489 750Q441 750 415 776T389 850Q389 894 416 922T489 950Q537 950 563 925T589 850Q589 806 562 778T489 750ZM218 750Q170 750 144 776T118 850Q118
894 145 922T218 950Q266 950 292 925T318 850Q318 806 291 778T218 750Z" />
<glyph unicode="&#xcc;" horiz-adv-x="612" d="M75 0V175H198V525H75V700H537V525H414V175H537V0H75ZM420 742L175 823L235 960L463 844L420 742Z" />
<glyph unicode="&#xcd;" horiz-adv-x="612" d="M75 0V175H198V525H75V700H537V525H414V175H537V0H75ZM202 742L159 844L387 960L447 823L202 742Z" />
<glyph unicode="&#xce;" horiz-adv-x="612" d="M75 0V175H198V525H75V700H537V525H414V175H537V0H75ZM168 753L110 826L255 937H357L502 826L444 753L291 829H321L168 753Z" />
<glyph unicode="&#xcf;" horiz-adv-x="612" d="M75 0V175H198V525H75V700H537V525H414V175H537V0H75ZM441 750Q393 750 367 776T341 850Q341 894 368 922T441 950Q489 950 515 925T541 850Q541 806 514 778T441 750ZM170 750Q122 750 96 776T70 850Q70 894 97
922T170 950Q218 950 244 925T270 850Q270 806 243 778T170 750Z" />
<glyph unicode="&#xd0;" horiz-adv-x="790" d="M25 280V420H393V280H25ZM80 0V700H388Q467 700 533 674T648 602T723 491T750 350Q750 274 724 210T648 99T533 26T388 0H80ZM296 133L259 184H383Q416 184 443 196T490 231T521 283T532 350Q532 386 521 416T490
469T443 503T383 516H256L296 565V133Z" />
<glyph unicode="&#xd1;" horiz-adv-x="817" d="M80 0V700H273L595 255L549 269Q544 309 541 339T535 394T531 445T529 500T529 570V700H737V0H542L187 490L268 466Q273 429 276 402T282 351T285 306T287 256T288 191V0H80ZM488 768Q471 768 453 773T409 790Q390
799 378 803T355 808Q340 808 332 798T324 769H207Q207 844 244 888T345 932Q360 932 376 929T424 909Q442 900 451 896T469 892Q482 892 488 903T494 932H610Q610 886 595 849T552 790T488 768Z" />
<glyph unicode="&#xd2;" horiz-adv-x="834" d="M418 -10Q335 -10 266 17T146 93T68 209T40 355Q40 435 67 501T146 617T266 693T417 720Q500 720 568 693T688 617T766 502T794 356Q794 276 767 209T688 93T569 17T418 -10ZM417 190Q451 190 479 202T529 236T562
289T574 355Q574 391 563 421T530 473T480 508T417 520Q383 520 355 508T305 474T272 421T260 355Q260 319 271 289T304 237T354 202T417 190ZM531 742L286 823L346 960L574 844L531 742Z" />
<glyph unicode="&#xd3;" horiz-adv-x="834" d="M418 -10Q335 -10 266 17T146 93T68 209T40 355Q40 435 67 501T146 617T266 693T417 720Q500 720 568 693T688 617T766 502T794 356Q794 276 767 209T688 93T569 17T418 -10ZM417 190Q451 190 479 202T529 236T562
289T574 355Q574 391 563 421T530 473T480 508T417 520Q383 520 355 508T305 474T272 421T260 355Q260 319 271 289T304 237T354 202T417 190ZM313 742L270 844L498 960L558 823L313 742Z" />
<glyph unicode="&#xd4;" horiz-adv-x="834" d="M418 -10Q335 -10 266 17T146 93T68 209T40 355Q40 435 67 501T146 617T266 693T417 720Q500 720 568 693T688 617T766 502T794 356Q794 276 767 209T688 93T569 17T418 -10ZM417 190Q451 190 479 202T529 236T562
289T574 355Q574 391 563 421T530 473T480 508T417 520Q383 520 355 508T305 474T272 421T260 355Q260 319 271 289T304 237T354 202T417 190ZM279 753L221 826L366 937H468L613 826L555 753L402 829H432L279 753Z" />
<glyph unicode="&#xd5;" horiz-adv-x="834" d="M418 -10Q335 -10 266 17T146 93T68 209T40 355Q40 435 67 501T146 617T266 693T417 720Q500 720 568 693T688 617T766 502T794 356Q794 276 767 209T688 93T569 17T418 -10ZM417 190Q451 190 479 202T529 236T562
289T574 355Q574 391 563 421T530 473T480 508T417 520Q383 520 355 508T305 474T272 421T260 355Q260 319 271 289T304 237T354 202T417 190ZM496 768Q479 768 461 773T417 790Q398 799 386 803T363 808Q348 808 340 798T332 769H215Q215 844 252 888T353 932Q368
932 384 929T432 909Q450 900 459 896T477 892Q490 892 496 903T502 932H618Q618 886 603 849T560 790T496 768Z" />
<glyph unicode="&#xd6;" horiz-adv-x="834" d="M418 -10Q335 -10 266 17T146 93T68 209T40 355Q40 435 67 501T146 617T266 693T417 720Q500 720 568 693T688 617T766 502T794 356Q794 276 767 209T688 93T569 17T418 -10ZM417 190Q451 190 479 202T529 236T562
289T574 355Q574 391 563 421T530 473T480 508T417 520Q383 520 355 508T305 474T272 421T260 355Q260 319 271 289T304 237T354 202T417 190ZM552 750Q504 750 478 776T452 850Q452 894 479 922T552 950Q600 950 626 925T652 850Q652 806 625 778T552 750ZM281
750Q233 750 207 776T181 850Q181 894 208 922T281 950Q329 950 355 925T381 850Q381 806 354 778T281 750Z" />
<glyph unicode="&#xd7;" horiz-adv-x="568" d="M408 34L40 403L160 523L528 155L408 34ZM160 34L40 155L408 523L528 403L160 34Z" />
<glyph unicode="&#xd8;" horiz-adv-x="834" d="M151 -33L88 20L677 741L745 694L151 -33ZM418 -10Q335 -10 266 17T146 93T68 209T40 355Q40 435 67 501T146 617T266 693T417 720Q500 720 568 693T688 617T766 502T794 356Q794 276 767 209T688 93T569 17T418
-10ZM417 190Q451 190 479 202T529 236T562 289T574 355Q574 391 563 421T530 473T480 508T417 520Q383 520 355 508T305 474T272 421T260 355Q260 319 271 289T304 237T354 202T417 190Z" />
<glyph unicode="&#xd9;" horiz-adv-x="784" d="M392 -6Q301 -6 231 29T120 127T80 269V700H298V278Q298 249 310 227T343 191T392 178Q421 178 443 191T478 226T491 278V700H704V269Q704 189 664 127T554 30T392 -6ZM506 742L261 823L321 960L549 844L506 742Z" />
<glyph unicode="&#xda;" horiz-adv-x="784" d="M392 -6Q301 -6 231 29T120 127T80 269V700H298V278Q298 249 310 227T343 191T392 178Q421 178 443 191T478 226T491 278V700H704V269Q704 189 664 127T554 30T392 -6ZM288 742L245 844L473 960L533 823L288 742Z" />
<glyph unicode="&#xdb;" horiz-adv-x="784" d="M392 -6Q301 -6 231 29T120 127T80 269V700H298V278Q298 249 310 227T343 191T392 178Q421 178 443 191T478 226T491 278V700H704V269Q704 189 664 127T554 30T392 -6ZM254 753L196 826L341 937H443L588 826L530
753L377 829H407L254 753Z" />
<glyph unicode="&#xdc;" horiz-adv-x="784" d="M392 -6Q301 -6 231 29T120 127T80 269V700H298V278Q298 249 310 227T343 191T392 178Q421 178 443 191T478 226T491 278V700H704V269Q704 189 664 127T554 30T392 -6ZM527 750Q479 750 453 776T427 850Q427 894
454 922T527 950Q575 950 601 925T627 850Q627 806 600 778T527 750ZM256 750Q208 750 182 776T156 850Q156 894 183 922T256 950Q304 950 330 925T356 850Q356 806 329 778T256 750Z" />
<glyph unicode="&#xdd;" horiz-adv-x="710" d="M256 0V349L263 300L-20 700H220L436 390L301 393L496 700H730L459 289L474 357V0H256ZM251 742L208 844L436 960L496 823L251 742Z" />
<glyph unicode="&#xde;" horiz-adv-x="683" d="M80 0V700H296V600H395Q467 600 523 569T611 484T643 360Q643 287 611 230T523 141T395 108H296V0H80ZM296 292H355Q374 292 389 299T412 321T421 356Q421 377 413 390T389 409T355 416H296V292Z" />
<glyph unicode="&#xdf;" horiz-adv-x="670" d="M430 -10Q393 -10 363 0T310 29L381 180Q393 172 401 170T420 167Q440 167 451 177T463 211Q463 231 451 247T421 277T381 301T342 322V422Q357 429 367 436T384 452T392 471T395 495Q395 522 380 535T338 549Q311
549 300 535T289 495V0H86V499Q86 569 116 622T205 704T346 734Q411 734 465 714T552 655T585 559Q585 523 571 486T531 419T467 373L465 432Q509 419 544 398T606 349T646 284T660 203Q660 142 631 94T549 18T430 -10ZM13 335V505H176V335H13Z" />
<glyph unicode="&#xe0;" horiz-adv-x="679" d="M261 -9Q194 -9 142 26T60 124T30 268Q30 350 59 412T141 510T263 546Q299 546 329 536T382 508T422 467T451 416L410 417V535H609V0H405V131L450 127Q440 98 423 73T381 30T327 2T261 -9ZM319 156Q348 156 368 169T399
207T410 268Q410 304 400 329T369 368T319 381Q290 381 270 368T240 330T229 268Q229 232 239 207T270 169T319 156ZM405 577L177 699L257 820L463 666L405 577Z" />
<glyph unicode="&#xe1;" horiz-adv-x="679" d="M261 -9Q194 -9 142 26T60 124T30 268Q30 350 59 412T141 510T263 546Q299 546 329 536T382 508T422 467T451 416L410 417V535H609V0H405V131L450 127Q440 98 423 73T381 30T327 2T261 -9ZM319 156Q348 156 368 169T399
207T410 268Q410 304 400 329T369 368T319 381Q290 381 270 368T240 330T229 268Q229 232 239 207T270 169T319 156ZM255 576L197 665L403 819L483 698L255 576Z" />
<glyph unicode="&#xe2;" horiz-adv-x="679" d="M261 -9Q194 -9 142 26T60 124T30 268Q30 350 59 412T141 510T263 546Q299 546 329 536T382 508T422 467T451 416L410 417V535H609V0H405V131L450 127Q440 98 423 73T381 30T327 2T261 -9ZM319 156Q348 156 368 169T399
207T410 268Q410 304 400 329T369 368T319 381Q290 381 270 368T240 330T229 268Q229 232 239 207T270 169T319 156ZM195 596L123 658L289 800H391L557 658L485 596L325 692H355L195 596Z" />
<glyph unicode="&#xe3;" horiz-adv-x="679" d="M261 -9Q194 -9 142 26T60 124T30 268Q30 350 59 412T141 510T263 546Q299 546 329 536T382 508T422 467T451 416L410 417V535H609V0H405V131L450 127Q440 98 423 73T381 30T327 2T261 -9ZM319 156Q348 156 368 169T399
207T410 268Q410 304 400 329T369 368T319 381Q290 381 270 368T240 330T229 268Q229 232 239 207T270 169T319 156ZM421 613Q406 613 386 617T336 641Q319 653 308 657T289 662Q274 662 263 653T249 622L144 636Q144 698 176 740T263 783Q278 783 297 779T345
757Q354 751 367 743T394 735Q408 735 419 745T431 775L536 760Q536 722 522 688T481 634T421 613Z" />
<glyph unicode="&#xe4;" horiz-adv-x="679" d="M261 -9Q194 -9 142 26T60 124T30 268Q30 350 59 412T141 510T263 546Q299 546 329 536T382 508T422 467T451 416L410 417V535H609V0H405V131L450 127Q440 98 423 73T381 30T327 2T261 -9ZM319 156Q348 156 368 169T399
207T410 268Q410 304 400 329T369 368T319 381Q290 381 270 368T240 330T229 268Q229 232 239 207T270 169T319 156ZM475 624Q427 624 401 650T375 724Q375 768 402 796T475 824Q523 824 549 799T575 724Q575 680 548 652T475 624ZM204 624Q156 624 130 650T104
724Q104 768 131 796T204 824Q252 824 278 799T304 724Q304 680 277 652T204 624Z" />
<glyph unicode="&#xe5;" horiz-adv-x="679" d="M261 -9Q194 -9 142 26T60 124T30 268Q30 350 59 412T141 510T263 546Q299 546 329 536T382 508T422 467T451 416L410 417V535H609V0H405V131L450 127Q440 98 423 73T381 30T327 2T261 -9ZM319 156Q348 156 368 169T399
207T410 268Q410 304 400 329T369 368T319 381Q290 381 270 368T240 330T229 268Q229 232 239 207T270 169T319 156ZM340 604Q306 604 277 621T229 666T211 728Q211 763 228 791T275 837T340 854Q376 854 405 837T451 792T469 728Q469 694 451 666T404 621T340
604ZM340 700Q352 700 360 708T368 728Q368 741 360 749T340 758Q328 758 320 750T312 729Q312 716 320 708T340 700Z" />
<glyph unicode="&#xe6;" horiz-adv-x="901" d="M213 -10Q161 -10 120 10T54 65T30 149Q30 188 45 218T91 268T166 299T271 309H701L696 301V319Q696 338 688 352T663 375T625 383Q592 383 570 371T537 337T525 284Q525 248 541 221T590 179T672 164Q705 164 729
171T779 196L862 65Q825 36 790 20T720 -3T649 -10Q556 -10 489 26T386 124T350 268Q350 328 370 379T426 467T512 525T621 546Q698 546 756 510T847 412T877 268L876 217H288Q275 217 265 214T247 204T236 189T232 169Q232 158 237 149T253 134T277 128Q296 128
313 134T344 151T367 180L426 87Q407 56 373 34T298 1T213 -10ZM345 242V315Q345 335 341 348T328 368T304 379T269 382Q233 382 211 370T168 327L53 440Q76 470 113 494T200 532T307 546Q356 546 395 535T463 500T506 440T521 352V242H345Z" />
<glyph unicode="&#xe7;" horiz-adv-x="553" d="M311 -10Q230 -10 167 26T67 124T30 268Q30 349 66 411T166 510T311 546Q383 546 444 524T543 460L433 330Q422 342 407 352T373 367T329 373Q299 373 277 360T242 324T230 269Q230 239 241 216T275 178T329 164Q354
164 373 169T407 183T433 206L542 75Q505 34 444 12T311 -10ZM207 -247L196 -156Q214 -156 234 -153T268 -143T282 -125Q282 -115 275 -109T255 -99T225 -96L204 -80L271 24H370L322 -40Q376 -44 401 -72T427 -139Q427 -173 407 -194T353 -228T281 -244T207 -247Z"
/>
<glyph unicode="&#xe8;" horiz-adv-x="586" d="M329 -10Q236 -10 169 26T66 124T30 268Q30 328 50 379T106 467T192 525T301 546Q360 546 408 526T492 468T545 379T562 268L561 226H142L119 321H400L381 301V319Q381 338 372 352T345 375T305 383Q276 383 256
371T226 337T215 284Q215 248 230 221T276 179T352 164Q382 164 403 171T449 196L542 65Q505 36 470 20T400 -3T329 -10ZM366 577L138 699L218 820L424 666L366 577Z" />
<glyph unicode="&#xe9;" horiz-adv-x="586" d="M329 -10Q236 -10 169 26T66 124T30 268Q30 328 50 379T106 467T192 525T301 546Q360 546 408 526T492 468T545 379T562 268L561 226H142L119 321H400L381 301V319Q381 338 372 352T345 375T305 383Q276 383 256
371T226 337T215 284Q215 248 230 221T276 179T352 164Q382 164 403 171T449 196L542 65Q505 36 470 20T400 -3T329 -10ZM216 576L158 665L364 819L444 698L216 576Z" />
<glyph unicode="&#xea;" horiz-adv-x="586" d="M329 -10Q236 -10 169 26T66 124T30 268Q30 328 50 379T106 467T192 525T301 546Q360 546 408 526T492 468T545 379T562 268L561 226H142L119 321H400L381 301V319Q381 338 372 352T345 375T305 383Q276 383 256
371T226 337T215 284Q215 248 230 221T276 179T352 164Q382 164 403 171T449 196L542 65Q505 36 470 20T400 -3T329 -10ZM156 596L84 658L250 800H352L518 658L446 596L286 692H316L156 596Z" />
<glyph unicode="&#xeb;" horiz-adv-x="586" d="M329 -10Q236 -10 169 26T66 124T30 268Q30 328 50 379T106 467T192 525T301 546Q360 546 408 526T492 468T545 379T562 268L561 226H142L119 321H400L381 301V319Q381 338 372 352T345 375T305 383Q276 383 256
371T226 337T215 284Q215 248 230 221T276 179T352 164Q382 164 403 171T449 196L542 65Q505 36 470 20T400 -3T329 -10ZM436 624Q388 624 362 650T336 724Q336 768 363 796T436 824Q484 824 510 799T536 724Q536 680 509 652T436 624ZM165 624Q117 624 91 650T65
724Q65 768 92 796T165 824Q213 824 239 799T265 724Q265 680 238 652T165 624Z" />
<glyph unicode="&#xec;" horiz-adv-x="323" d="M60 0V535H263V0H60ZM227 577L-1 699L79 820L285 666L227 577Z" />
<glyph unicode="&#xed;" horiz-adv-x="323" d="M60 0V535H263V0H60ZM77 576L19 665L225 819L305 698L77 576Z" />
<glyph unicode="&#xee;" horiz-adv-x="323" d="M60 0V535H263V0H60ZM17 596L-55 658L111 800H213L379 658L307 596L147 692H177L17 596Z" />
<glyph unicode="&#xef;" horiz-adv-x="323" d="M60 0V535H263V0H60ZM297 624Q249 624 223 650T197 724Q197 768 224 796T297 824Q345 824 371 799T397 724Q397 680 370 652T297 624ZM26 624Q-22 624 -48 650T-74 724Q-74 768 -47 796T26 824Q74 824 100 799T126
724Q126 680 99 652T26 624Z" />
<glyph unicode="&#xf0;" horiz-adv-x="614" d="M305 -7Q222 -7 161 27T65 120T30 252Q30 304 51 350T110 432T195 488T295 508Q345 508 385 489T452 433T488 348L358 379Q356 421 349 455T327 516T292 565T240 603T169 632L221 750Q287 734 343 706T444 636T520
543T567 429T584 293Q584 204 550 137T453 31T305 -7ZM307 159Q332 159 352 172T385 209T397 262Q397 290 385 312T353 348T307 362Q282 362 262 349T229 314T217 262Q217 233 229 210T261 173T307 159ZM146 509L133 574L303 618L362 650L508 683L526 617L413 591L368
562L146 509Z" />
<glyph unicode="&#xf1;" horiz-adv-x="665" d="M70 0V535H258L268 427L225 415Q236 453 264 482T333 529T418 546Q478 546 520 521T583 448T605 330V0H402V313Q402 335 395 350T374 373T341 381Q326 381 314 377T292 363T278 343T273 318V0H172Q134 0 109 0T70
0ZM444 613Q429 613 409 617T359 641Q342 653 331 657T312 662Q297 662 286 653T272 622L167 636Q167 698 199 740T286 783Q301 783 320 779T368 757Q377 751 390 743T417 735Q431 735 442 745T454 775L559 760Q559 722 545 688T504 634T444 613Z" />
<glyph unicode="&#xf2;" horiz-adv-x="660" d="M331 -10Q244 -10 176 26T69 124T30 268Q30 349 69 411T176 510T331 546Q418 546 485 510T591 412T630 268Q630 187 592 125T486 26T331 -10ZM331 160Q358 160 379 174T413 212T425 268Q425 300 413 324T380 363T331
377Q303 377 282 363T248 325T235 268Q235 237 247 213T281 174T331 160ZM395 577L167 699L247 820L453 666L395 577Z" />
<glyph unicode="&#xf3;" horiz-adv-x="660" d="M331 -10Q244 -10 176 26T69 124T30 268Q30 349 69 411T176 510T331 546Q418 546 485 510T591 412T630 268Q630 187 592 125T486 26T331 -10ZM331 160Q358 160 379 174T413 212T425 268Q425 300 413 324T380 363T331
377Q303 377 282 363T248 325T235 268Q235 237 247 213T281 174T331 160ZM245 576L187 665L393 819L473 698L245 576Z" />
<glyph unicode="&#xf4;" horiz-adv-x="660" d="M331 -10Q244 -10 176 26T69 124T30 268Q30 349 69 411T176 510T331 546Q418 546 485 510T591 412T630 268Q630 187 592 125T486 26T331 -10ZM331 160Q358 160 379 174T413 212T425 268Q425 300 413 324T380 363T331
377Q303 377 282 363T248 325T235 268Q235 237 247 213T281 174T331 160ZM185 596L113 658L279 800H381L547 658L475 596L315 692H345L185 596Z" />
<glyph unicode="&#xf5;" horiz-adv-x="660" d="M331 -10Q244 -10 176 26T69 124T30 268Q30 349 69 411T176 510T331 546Q418 546 485 510T591 412T630 268Q630 187 592 125T486 26T331 -10ZM331 160Q358 160 379 174T413 212T425 268Q425 300 413 324T380 363T331
377Q303 377 282 363T248 325T235 268Q235 237 247 213T281 174T331 160ZM411 613Q396 613 376 617T326 641Q309 653 298 657T279 662Q264 662 253 653T239 622L134 636Q134 698 166 740T253 783Q268 783 287 779T335 757Q344 751 357 743T384 735Q398 735 409
745T421 775L526 760Q526 722 512 688T471 634T411 613Z" />
<glyph unicode="&#xf6;" horiz-adv-x="660" d="M331 -10Q244 -10 176 26T69 124T30 268Q30 349 69 411T176 510T331 546Q418 546 485 510T591 412T630 268Q630 187 592 125T486 26T331 -10ZM331 160Q358 160 379 174T413 212T425 268Q425 300 413 324T380 363T331
377Q303 377 282 363T248 325T235 268Q235 237 247 213T281 174T331 160ZM465 624Q417 624 391 650T365 724Q365 768 392 796T465 824Q513 824 539 799T565 724Q565 680 538 652T465 624ZM194 624Q146 624 120 650T94 724Q94 768 121 796T194 824Q242 824 268 799T294
724Q294 680 267 652T194 624Z" />
<glyph unicode="&#xf7;" horiz-adv-x="597" d="M38 188V348H560V188H38ZM299 -52Q265 -52 241 -41T203 -7T190 48Q190 77 203 99T241 135T299 148Q333 148 357 137T395 103T408 48Q408 19 395 -3T357 -39T299 -52ZM299 388Q265 388 241 399T203 433T190 488Q190
517 203 539T241 575T299 588Q333 588 357 577T395 543T408 488Q408 459 395 437T357 401T299 388Z" />
<glyph unicode="&#xf8;" horiz-adv-x="660" d="M130 -35L64 13L533 571L600 522L130 -35ZM331 -10Q244 -10 176 26T69 124T30 268Q30 349 69 411T176 510T331 546Q418 546 485 510T591 412T630 268Q630 187 592 125T486 26T331 -10ZM331 160Q358 160 379 174T413
212T425 268Q425 300 413 324T380 363T331 377Q303 377 282 363T248 325T235 268Q235 237 247 213T281 174T331 160Z" />
<glyph unicode="&#xf9;" horiz-adv-x="669" d="M249 -11Q188 -11 146 14T82 87T60 205V535H263V222Q263 200 270 185T292 162T326 154Q341 154 353 158T375 172T389 192T394 217V535H597V0H411L399 108L437 120Q426 82 399 53T332 6T249 -11ZM400 577L172 699L252
820L458 666L400 577Z" />
<glyph unicode="&#xfa;" horiz-adv-x="669" d="M249 -11Q188 -11 146 14T82 87T60 205V535H263V222Q263 200 270 185T292 162T326 154Q341 154 353 158T375 172T389 192T394 217V535H597V0H411L399 108L437 120Q426 82 399 53T332 6T249 -11ZM250 576L192 665L398
819L478 698L250 576Z" />
<glyph unicode="&#xfb;" horiz-adv-x="669" d="M249 -11Q188 -11 146 14T82 87T60 205V535H263V222Q263 200 270 185T292 162T326 154Q341 154 353 158T375 172T389 192T394 217V535H597V0H411L399 108L437 120Q426 82 399 53T332 6T249 -11ZM190 596L118 658L284
800H386L552 658L480 596L320 692H350L190 596Z" />
<glyph unicode="&#xfc;" horiz-adv-x="669" d="M249 -11Q188 -11 146 14T82 87T60 205V535H263V222Q263 200 270 185T292 162T326 154Q341 154 353 158T375 172T389 192T394 217V535H597V0H411L399 108L437 120Q426 82 399 53T332 6T249 -11ZM470 624Q422 624
396 650T370 724Q370 768 397 796T470 824Q518 824 544 799T570 724Q570 680 543 652T470 624ZM199 624Q151 624 125 650T99 724Q99 768 126 796T199 824Q247 824 273 799T299 724Q299 680 272 652T199 624Z" />
<glyph unicode="&#xfd;" horiz-adv-x="649" d="M121 -230L254 84L256 2L5 535H231L305 357Q317 329 325 304T338 257L318 239Q322 250 330 273T348 328L418 535H644L411 0L317 -230H121ZM240 576L182 665L388 819L468 698L240 576Z" />
<glyph unicode="&#xfe;" horiz-adv-x="679" d="M70 -220V740H274V417L228 426Q235 461 262 488T330 530T421 546Q471 546 512 526T584 469T632 381T649 268Q649 187 619 125T537 27T416 -9Q371 -9 332 7T265 51T229 117L274 131V-220H70ZM360 156Q389 156 409
169T439 207T450 268Q450 304 440 329T409 368T360 381Q331 381 311 368T280 330T269 268Q269 232 279 207T310 169T360 156Z" />
<glyph unicode="&#xff;" horiz-adv-x="649" d="M121 -230L254 84L256 2L5 535H231L305 357Q317 329 325 304T338 257L318 239Q322 250 330 273T348 328L418 535H644L411 0L317 -230H121ZM460 624Q412 624 386 650T360 724Q360 768 387 796T460 824Q508 824 534
799T560 724Q560 680 533 652T460 624ZM189 624Q141 624 115 650T89 724Q89 768 116 796T189 824Q237 824 263 799T289 724Q289 680 262 652T189 624Z" />
<glyph unicode="&#x2013;" horiz-adv-x="655" d="M60 207V372H595V207H60Z" />
<glyph unicode="&#x2014;" horiz-adv-x="982" d="M60 207V372H922V207H60Z" />
<glyph unicode="&#x2018;" horiz-adv-x="302" d="M153 396Q121 396 96 413T55 460T40 531Q40 567 53 601T90 666T148 718T220 751L272 687Q228 670 202 641T176 592Q176 583 180 573T204 551Q229 535 239 517T249 474Q249 438 222 417T153 396Z" />
<glyph unicode="&#x2019;" horiz-adv-x="302" d="M82 395L30 459Q74 476 100 505T126 554Q126 563 122 573T98 595Q73 611 63 629T53 672Q53 708 80 729T149 750Q181 750 206 733T247 686T262 615Q262 579 249 545T212 480T154 428T82 395Z" />
<glyph unicode="&#x201a;" horiz-adv-x="302" d="M82 -215L30 -151Q74 -134 100 -105T126 -56Q126 -47 122 -37T98 -15Q73 1 63 19T53 62Q53 98 80 119T149 140Q181 140 206 123T247 76T262 5Q262 -31 249 -65T212 -130T154 -182T82 -215Z" />
<glyph unicode="&#x201c;" horiz-adv-x="549" d="M153 647Q121 647 96 664T55 711T40 782Q40 818 53 852T90 917T148 969T220 1002L272 938Q228 921 202 892T176 843Q176 834 180 824T204 802Q229 786 239 768T249 725Q249 689 222 668T153 647ZM400 391Q368 391
343 408T302 455T287 526Q287 562 300 596T337 661T395 713T467 746L519 682Q475 665 449 636T423 587Q423 578 427 568T451 546Q476 530 486 512T496 469Q496 433 469 412T400 391Z" />
<glyph unicode="&#x201d;" horiz-adv-x="550" d="M82 395L30 459Q74 476 100 505T126 554Q126 563 122 573T98 595Q73 611 63 629T53 672Q53 708 80 729T149 750Q181 750 206 733T247 686T262 615Q262 579 249 545T212 480T154 428T82 395ZM330 395L278 459Q322
476 348 505T374 554Q374 563 370 573T346 595Q321 611 311 629T301 672Q301 708 328 729T397 750Q429 750 454 733T495 686T510 615Q510 579 497 545T460 480T402 428T330 395Z" />
<glyph unicode="&#x201e;" horiz-adv-x="527" d="M82 -215L30 -151Q74 -134 100 -105T126 -56Q126 -47 122 -37T98 -15Q73 1 63 19T53 62Q53 98 80 119T149 140Q181 140 206 123T247 76T262 5Q262 -31 249 -65T212 -130T154 -182T82 -215ZM307 -215L255 -151Q299
-134 325 -105T351 -56Q351 -47 347 -37T323 -15Q298 1 288 19T278 62Q278 98 305 119T374 140Q406 140 431 123T472 76T487 5Q487 -31 474 -65T437 -130T379 -182T307 -215Z" />
<glyph unicode="&#x2022;" horiz-adv-x="346" d="M173 216Q136 216 105 234T56 283T37 351Q37 389 55 420T104 469T173 488Q211 488 242 470T291 420T310 351Q310 314 292 283T242 234T173 216Z" />
<glyph unicode="&#x2039;" horiz-adv-x="346" d="M198 9L10 248V269L198 508L311 431L186 233V284L311 86L198 9Z" />
<glyph unicode="&#x203a;" horiz-adv-x="346" d="M148 13L35 90L160 288V237L35 435L148 512L336 273V252L148 13Z" />
</font>
</defs>
</svg>
